<svg width="500" height="500" viewBox="0 0 500 500" fill="none" xmlns="http://www.w3.org/2000/svg">
<path d="M342.771 128.917C325.595 128.905 308.611 132.524 292.932 139.536C277.253 146.548 263.233 156.794 251.792 169.604C251.569 169.86 251.293 170.066 250.984 170.206C250.675 170.347 250.34 170.42 250 170.42C249.66 170.42 249.325 170.347 249.016 170.206C248.706 170.066 248.431 169.86 248.208 169.604C231.727 151.172 210.037 138.178 186.008 132.343C161.98 126.509 136.746 128.108 113.647 136.929C90.5474 145.75 70.671 161.378 56.6481 181.743C42.6252 202.109 35.1169 226.253 35.1169 250.979C35.1169 275.706 42.6252 299.849 56.6481 320.215C70.671 340.581 90.5474 356.208 113.647 365.029C136.746 373.851 161.98 375.45 186.008 369.615C210.037 363.78 231.727 350.787 248.208 332.354C248.431 332.098 248.706 331.893 249.016 331.752C249.325 331.611 249.66 331.538 250 331.538C250.34 331.538 250.675 331.611 250.984 331.752C251.293 331.893 251.569 332.098 251.792 332.354C265.364 347.54 282.52 359.089 301.697 365.95C320.875 372.81 341.464 374.763 361.589 371.632C381.714 368.5 400.736 360.383 416.922 348.02C433.108 335.657 445.944 319.441 454.26 300.849C462.577 282.257 466.11 261.88 464.537 241.573C462.964 221.267 456.336 201.676 445.256 184.586C434.176 167.496 418.997 153.45 401.1 143.727C383.204 134.003 363.159 128.912 342.792 128.917M342.792 314.458C323.271 314.458 306.958 305.042 296.937 294.417C293.75 291.021 289.792 286.375 285.437 282.417C283.354 280.556 281.319 278.868 279.333 277.354C270.775 271.25 260.511 267.999 250 268.062C239.502 268.026 229.255 271.267 220.687 277.333C218.573 278.93 216.536 280.626 214.583 282.417C210.208 286.375 206.271 291.021 203.083 294.417C193.083 305.042 176.771 314.458 157.229 314.458L155.75 314.417C154.917 314.403 154.076 314.368 153.229 314.312C152.646 314.285 152.076 314.243 151.521 314.187L150.5 314.104C134.917 312.443 120.499 305.076 110.022 293.422C99.545 281.768 93.749 266.65 93.7499 250.979V251.25V250.708V250.979C93.7629 235.312 99.5637 220.202 110.038 208.55C120.513 196.899 134.922 189.529 150.5 187.854L151.562 187.75L153.229 187.625L155.75 187.542L157.208 187.5C176.75 187.5 193.062 196.917 203.083 207.542C206.271 210.937 210.229 215.583 214.562 219.521C216.646 221.41 218.687 223.104 220.687 224.604C228.854 230.437 238.979 233.896 249.979 233.896C260.979 233.896 271.104 230.437 279.271 224.604C281.376 222.988 283.42 221.293 285.396 219.521C289.75 215.583 293.687 210.937 296.875 207.542C302.783 201.285 309.893 196.286 317.78 192.842C325.666 189.398 334.166 187.581 342.771 187.5L344.229 187.542L346.771 187.625L348.375 187.75L349.5 187.854C364.437 189.463 378.32 196.312 388.686 207.185C399.053 218.059 405.231 232.253 406.125 247.25L406.146 247.854L406.208 249.583V252.167C406.208 252.819 406.187 253.472 406.146 254.125V254.542C405.285 269.567 399.118 283.799 388.745 294.703C378.371 305.607 364.464 312.475 349.5 314.083L348.354 314.167C346.974 314.27 345.592 314.34 344.208 314.375L342.75 314.437L342.792 314.458Z" fill="url(#paint0_linear_16_124)"/>
<defs>
<linearGradient id="paint0_linear_16_124" x1="79.0624" y1="117.292" x2="436" y2="394.896" gradientUnits="userSpaceOnUse">
<stop stop-color="#0082FF"/>
<stop offset="0.42" stop-color="#0A96FF"/>
<stop offset="0.56" stop-color="#05BCFF"/>
<stop offset="0.76" stop-color="#00F0FF"/>
<stop offset="0.79" stop-color="#04F0FC"/>
<stop offset="0.82" stop-color="#10F1F5"/>
<stop offset="0.85" stop-color="#24F4E8"/>
<stop offset="0.89" stop-color="#40F7D7"/>
<stop offset="0.92" stop-color="#64FBC1"/>
<stop offset="0.94" stop-color="#82FFB0"/>
</linearGradient>
</defs>
</svg>
